<?xml version="1.0" encoding="UTF-8" standalone="no"?>
<svg
   width="80"
   height="80"
   viewBox="0 0 80 80"
   fill="none"
   version="1.1"
   id="svg13"
   sodipodi:docname="flag_triangle.svg"
   inkscape:version="1.1.2 (0a00cf5339, 2022-02-04)"
   inkscape:export-filename="/home/neochapay/work/ubuntu/hideme_ubports/app/graphics/flag_triangle.png"
   inkscape:export-xdpi="96"
   inkscape:export-ydpi="96"
   xmlns:inkscape="http://www.inkscape.org/namespaces/inkscape"
   xmlns:sodipodi="http://sodipodi.sourceforge.net/DTD/sodipodi-0.dtd"
   xmlns="http://www.w3.org/2000/svg"
   xmlns:svg="http://www.w3.org/2000/svg">
  <defs
     id="defs17" />
  <sodipodi:namedview
     id="namedview15"
     pagecolor="#ffffff"
     bordercolor="#999999"
     borderopacity="1"
     inkscape:pageshadow="0"
     inkscape:pageopacity="0"
     inkscape:pagecheckerboard="0"
     showgrid="false"
     inkscape:zoom="8.05"
     inkscape:cx="39.937888"
     inkscape:cy="40"
     inkscape:window-width="1920"
     inkscape:window-height="1007"
     inkscape:window-x="0"
     inkscape:window-y="412"
     inkscape:window-maximized="1"
     inkscape:current-layer="svg13" />
  <mask
     id="mask0_25_3729"
     style="mask-type:alpha"
     maskUnits="userSpaceOnUse"
     x="0"
     y="0"
     width="80"
     height="80">
    <path
       d="M54.3589 80C52.8167 79.974 51.1431 79.1365 49.5665 77.4328V77.4448L35.5652 62.3098L34.035 63.0442L33.6938 62.3098L34.9939 61.7128L2.23066 26.2681C-1.65752 22.0896 -0.328514 17.6 5.17223 16.286L72.5167 0.280597C73.2294 0.110228 73.9029 0.0186351 74.5313 0H75.0072C78.9385 0.120242 80.9315 3.2575 79.5759 7.87403L59.5737 75.0501C58.6229 78.2581 56.7091 79.9617 54.509 80H54.3589ZM9.16689 12.5194C9.29338 12.3898 9.45988 12.3254 9.62637 12.3254C9.7911 12.3254 9.95582 12.3887 10.0817 12.5158C10.3359 12.7713 10.3371 13.1875 10.0853 13.4448C9.83346 13.7021 9.42399 13.7039 9.16984 13.4478L9.16689 13.4448C8.9151 13.1916 8.91274 12.7803 9.1616 12.5242C9.16336 12.5224 9.16513 12.5206 9.16689 12.5194ZM9.37163 13.2346L9.3728 13.2358H9.87875C10.0141 13.0943 10.0141 12.8693 9.87875 12.7278H9.3728C9.23455 12.8675 9.23396 13.0943 9.37163 13.2346ZM1.76589 14.4239L2.24242 14.3642L2.51305 16.477L2.01886 16.5427L1.76589 14.4239ZM33.3614 65.4179C33.6167 65.1594 33.9508 65.0304 34.285 65.0304C34.6209 65.0304 34.9563 65.1606 35.2116 65.4209C35.7217 65.9403 35.7205 66.7809 35.2087 67.2979C34.6968 67.8161 33.8685 67.8143 33.3584 67.2955C32.8483 66.7761 32.8495 65.9355 33.3614 65.4179ZM33.782 66.8657C33.9214 67.0078 34.1044 67.0794 34.288 67.0794C34.4692 67.0794 34.6498 67.0101 34.7886 66.871L34.7939 66.8657C35.0728 66.5899 35.0792 66.1361 34.808 65.8519C34.8027 65.8472 34.7986 65.843 34.7939 65.8388C34.5139 65.5558 34.062 65.5558 33.782 65.8388C33.5026 66.1099 33.4926 66.5594 33.7596 66.8436C33.7667 66.8507 33.7749 66.8579 33.782 66.8657Z"
       fill="white"
       id="path2" />
  </mask>
  <g
     mask="url(#mask0_25_3729)"
     id="g11"
     style="stroke:none;stroke-opacity:1;fill:#00ff00;fill-opacity:1">
    <path
       fill-rule="evenodd"
       clip-rule="evenodd"
       d="M-18.8367 80H20.2333V0H-18.8367V80Z"
       fill="#121212"
       id="path1642"
       style="stroke:none;stroke-opacity:1;fill:#00ff00;fill-opacity:1" />
    <path
       fill-rule="evenodd"
       clip-rule="evenodd"
       d="M20.2332 80H59.7562V0H20.2332V80Z"
       fill="#FFE533"
       id="path1639"
       style="stroke:none;stroke-opacity:1;fill:#00ff00;fill-opacity:1" />
    <path
       fill-rule="evenodd"
       clip-rule="evenodd"
       d="M59.7559 80H98.8259V0H59.7559V80Z"
       fill="#ED2F37"
       id="path1636"
       style="stroke:none;stroke-opacity:1;fill:#00ff00;fill-opacity:1" />
  </g>
</svg>
