<svg width="512" height="512" viewBox="0 0 512 512" fill="none" xmlns="http://www.w3.org/2000/svg">
<mask id="mask0_48_677" style="mask-type:luminance" maskUnits="userSpaceOnUse" x="0" y="16" width="512" height="480">
<path d="M166.062 16H345.938C491.235 16 512 36.7132 512 181.875V330.125C512 475.286 491.235 496 345.938 496H166.062C20.7652 496 0 475.286 0 330.125V181.875C0 36.7132 20.7652 16 166.062 16Z" fill="white"/>
</mask>
<g mask="url(#mask0_48_677)">
<rect width="512" height="512" fill="#2AA9E0"/>
<path fill-rule="evenodd" clip-rule="evenodd" d="M140.642 151.663H138.717C138.174 152.216 138.174 153.07 138.717 153.623H140.642C141.185 153.12 141.185 152.216 140.642 151.663ZM137.928 154.427C136.94 153.472 136.94 151.864 137.928 150.859C138.865 149.904 140.494 149.904 141.432 150.859C142.419 151.864 142.419 153.422 141.432 154.427C140.494 155.432 138.915 155.432 137.928 154.427ZM110.68 166.285L109.643 158.195L111.469 157.944L112.506 166.034L110.68 166.285ZM235.664 358.684C236.75 357.629 236.75 355.87 235.664 354.765C234.578 353.659 232.851 353.659 231.814 354.765C230.728 355.87 230.728 357.629 231.814 358.684C232.851 359.79 234.578 359.79 235.664 358.684ZM230.185 360.342C228.211 358.383 228.211 355.117 230.185 353.157C232.11 351.147 235.27 351.147 237.244 353.157C239.169 355.117 239.169 358.332 237.244 360.342C235.27 362.302 232.11 362.302 230.185 360.342ZM291.987 399.184L238.577 341.349L232.752 344.162L231.469 341.349L236.405 338.987L111.519 203.569C96.6608 187.49 101.745 170.406 122.823 165.381L379.506 104.078C400.583 99.0537 412.578 112.068 406.359 133.122L330.193 390.089C323.924 411.143 306.845 415.263 292.036 399.184H291.987Z" fill="white"/>
<path fill-rule="evenodd" clip-rule="evenodd" d="M307.969 139.365C307.028 138.425 307.028 136.859 307.969 135.971C308.91 135.031 310.426 135.031 311.367 135.971C312.308 136.859 312.308 138.425 311.367 139.365C310.426 140.305 308.91 140.305 307.969 139.365ZM312.779 140.723C314.504 139.052 314.504 136.232 312.779 134.509C311.054 132.838 308.283 132.838 306.558 134.509C304.885 136.232 304.885 139 306.558 140.723C308.283 142.446 311.054 142.446 312.779 140.723ZM299.71 133.726C298.455 133.726 297.201 134.195 296.26 135.135C294.273 137.12 294.273 140.305 296.26 142.289C296.521 142.498 296.73 142.707 296.992 142.916C296.417 139.626 296.887 136.389 299.71 133.726ZM259.353 144.691L258.831 142.289L269.286 139.992L269.808 142.394L259.353 144.639V144.691ZM299.71 150.592C299.344 149.757 298.926 148.921 298.612 148.086C298.717 147.616 298.926 147.198 299.292 146.885C300.233 145.945 301.749 145.945 302.69 146.885C303.63 147.824 303.63 149.339 302.69 150.279C301.853 151.114 300.599 151.219 299.71 150.592ZM311.263 153.568C310.74 153.046 310.74 152.211 311.263 151.741C311.733 151.271 312.57 151.271 313.092 151.741C313.615 152.211 313.615 153.046 313.092 153.568C312.622 154.038 311.785 154.038 311.263 153.568ZM195.839 154.404L195.107 153.568L198.557 150.331L199.289 151.166L195.839 154.404ZM313.824 154.3C314.713 153.412 314.713 151.897 313.824 151.01C312.883 150.07 311.419 150.07 310.531 151.01C309.642 151.897 309.642 153.36 310.531 154.3C311.472 155.187 312.935 155.187 313.824 154.3ZM289.203 159.887C290.718 158.32 290.718 155.866 289.203 154.3C287.634 152.733 285.125 152.733 283.609 154.3C282.041 155.866 282.041 158.32 283.609 159.887C285.177 161.401 287.634 161.401 289.203 159.887ZM281.257 162.185C278.486 159.365 278.486 154.822 281.257 152.002C284.132 149.182 288.68 149.182 291.45 152.002C294.221 154.822 294.221 159.365 291.45 162.185C288.68 164.952 284.08 164.952 281.257 162.185ZM245.239 173.046C246.232 172.054 246.232 170.435 245.239 169.391C244.246 168.346 242.625 168.346 241.58 169.391C240.587 170.435 240.587 172.054 241.58 173.046C242.625 174.09 244.246 174.09 245.239 173.046ZM240.064 174.56C238.234 172.68 238.234 169.704 240.064 167.876C241.893 166.049 244.925 166.049 246.755 167.876C248.585 169.704 248.585 172.68 246.755 174.56C244.925 176.388 241.893 176.388 240.064 174.56ZM309.694 176.388L310.217 173.359L299.239 171.479C299.501 171.009 299.71 170.644 299.971 170.174C298.926 170.069 297.828 170.383 296.939 171.114H296.835V171.218C296.835 171.218 296.835 171.323 296.73 171.323C295.371 172.68 295.214 174.769 296.26 176.336C296.73 175.657 297.096 175.03 297.514 174.351L309.747 176.44L309.694 176.388ZM178.379 177.223C179.895 175.657 179.895 173.15 178.379 171.636C176.863 170.069 174.354 170.069 172.838 171.636C172.524 171.897 172.367 172.158 172.158 172.472H174.354L174.302 175.552H171.792C172.001 176.127 172.315 176.701 172.838 177.223C174.354 178.738 176.863 178.738 178.379 177.223ZM170.538 179.469C169.388 178.32 168.76 176.91 168.499 175.448L160.919 175.291V172.263L168.708 172.419C169.022 171.27 169.597 170.226 170.485 169.338C173.256 166.571 177.856 166.571 180.679 169.338C183.502 172.158 183.502 176.701 180.679 179.521C177.908 182.341 173.308 182.341 170.485 179.521L170.538 179.469ZM293.489 182.341C293.228 182.08 293.123 181.819 293.071 181.505C293.385 180.879 293.646 180.356 293.907 179.991C294.43 179.782 295.057 179.887 295.476 180.304C296.051 180.826 296.051 181.714 295.476 182.341C294.901 182.863 294.012 182.863 293.489 182.341ZM207.653 185.317V178.477H209.169V185.317H207.653ZM263.117 187.824L262.385 185.108L274.2 181.871L274.931 184.534L263.117 187.824ZM138.65 189.86C138.65 189.86 138.807 189.704 138.807 189.599L137.447 189.39L137.709 187.771L138.754 187.928C138.754 187.928 138.702 187.876 138.65 187.824C138.127 187.249 137.186 187.249 136.611 187.824C136.036 188.398 136.036 189.286 136.611 189.86C137.134 190.382 138.127 190.382 138.65 189.86ZM135.775 190.696C134.781 189.704 134.781 188.033 135.775 186.988C136.82 185.944 138.441 185.944 139.486 186.988C139.8 187.354 140.009 187.719 140.166 188.189L144.818 188.868L144.557 190.487L140.113 189.808C140.009 190.174 139.8 190.435 139.538 190.696C138.493 191.688 136.872 191.688 135.827 190.696H135.775ZM290.771 192.314C290.771 192.314 290.457 191.949 290.353 191.74C290.353 190.905 290.405 190.069 290.457 189.234C290.562 189.129 290.666 189.025 290.771 188.868C291.712 187.928 293.228 187.928 294.169 188.868C295.11 189.808 295.11 191.322 294.169 192.262C293.228 193.202 291.712 193.202 290.771 192.262V192.314ZM301.905 193.829C300.599 192.523 300.599 190.435 301.905 189.129C303.212 187.824 305.303 187.824 306.61 189.129C307.917 190.382 307.917 192.523 306.61 193.829C305.303 195.134 303.212 195.134 301.905 193.829ZM308.597 195.761C310.949 193.411 310.949 189.547 308.597 187.249C306.192 184.847 302.376 184.847 300.023 187.249C297.619 189.599 297.619 193.411 300.023 195.761C302.376 198.111 306.244 198.111 308.597 195.761ZM290.405 196.074C289.725 196.231 289.098 196.596 288.523 197.119C286.955 198.633 286.955 201.192 288.523 202.706C289.046 203.28 289.778 203.646 290.457 203.802C290.614 201.505 290.457 198.79 290.405 196.126V196.074ZM263.169 204.481C264.11 203.541 264.11 202.079 263.169 201.139C262.228 200.199 260.765 200.199 259.824 201.139C258.935 202.079 258.935 203.594 259.824 204.481C260.765 205.421 262.281 205.421 263.169 204.481ZM258.465 205.839C256.74 204.116 256.74 201.4 258.465 199.729C260.137 198.058 262.856 198.058 264.529 199.729C266.201 201.4 266.201 204.116 264.529 205.839C262.856 207.51 260.137 207.51 258.465 205.839ZM307.708 208.711L309.172 208.293L307.29 201.87L305.826 202.288L307.708 208.763V208.711ZM185.175 215.395L175.556 207.197L177.438 205.004L187.057 213.202L185.175 215.395ZM283.452 215.395C285.961 212.888 285.961 208.815 283.452 206.309C280.943 203.803 276.918 203.803 274.409 206.309C271.899 208.815 271.899 212.888 274.409 215.395C276.918 217.901 280.943 217.901 283.452 215.395ZM295.58 220.565C294.535 219.52 294.535 217.797 295.58 216.753C296.678 215.708 298.403 215.708 299.448 216.753C300.494 217.797 300.494 219.52 299.448 220.565C298.403 221.661 296.678 221.661 295.58 220.565ZM301.017 222.131C302.951 220.251 302.951 217.066 301.017 215.186C299.083 213.254 295.946 213.254 294.064 215.186C292.078 217.118 292.078 220.251 294.064 222.131C295.946 224.063 299.135 224.063 301.017 222.131ZM238.339 226.256C239.855 224.742 239.855 222.183 238.339 220.669C236.823 219.102 234.313 219.102 232.798 220.669C231.229 222.183 231.229 224.742 232.798 226.256C234.313 227.771 236.823 227.771 238.339 226.256ZM284.602 227.353C283.661 226.413 283.661 224.899 284.602 223.959C285.543 223.019 287.059 223.019 288 223.959C288.941 224.899 288.941 226.413 288 227.353C287.059 228.293 285.543 228.293 284.602 227.353ZM289.412 228.763C291.137 227.04 291.137 224.272 289.412 222.549C288.575 221.713 287.425 221.296 284.289 222.131V221.87C283.766 221.974 283.243 222.236 282.773 222.706C282.041 223.489 281.779 224.481 281.989 225.473C281.936 226.674 282.354 227.875 283.243 228.815C284.916 230.486 287.739 230.486 289.464 228.815L289.412 228.763ZM230.445 228.554C227.675 225.734 227.675 221.191 230.445 218.371C233.268 215.552 237.868 215.552 240.639 218.371C243.409 221.191 243.409 225.734 240.639 228.554C237.816 231.322 233.268 231.322 230.445 228.554ZM307.76 235.969L309.015 233.776L299.344 228.293C299.083 226.831 298.664 225.264 298.037 223.593C297.148 227.092 296.678 231.06 296.051 234.768C296.364 234.194 296.782 233.671 297.201 233.201C297.932 232.47 298.769 231.948 299.71 231.583V231.478L307.76 236.021V235.969ZM299.292 235.969C298.455 236.491 298.142 237.953 298.455 239.311C298.873 238.11 299.187 236.857 299.292 235.969ZM305.303 244.063C304.728 243.488 304.728 242.601 305.303 242.026C305.878 241.452 306.767 241.452 307.29 242.026C307.865 242.601 307.865 243.488 307.29 244.063C306.767 244.637 305.826 244.637 305.303 244.063ZM186.116 244.794C186.691 244.167 186.691 243.332 186.116 242.757C185.541 242.183 184.652 242.183 184.129 242.757C183.554 243.332 183.554 244.219 184.129 244.794C184.704 245.316 185.593 245.316 186.116 244.794ZM308.178 244.898C309.172 243.906 309.172 242.235 308.178 241.191C307.133 240.199 305.512 240.199 304.467 241.191C303.421 242.235 303.421 243.906 304.467 244.898C305.46 245.943 307.133 245.943 308.178 244.898ZM183.241 245.629C182.247 244.585 182.247 242.966 183.241 241.922C184.286 240.878 185.907 240.878 186.9 241.922C187.945 242.966 187.945 244.585 186.9 245.629C185.907 246.622 184.234 246.622 183.241 245.629ZM249.16 247.091L249.055 245.159L257.524 244.637L257.628 246.569L249.16 247.091ZM343.307 245.943C343.464 245.577 343.673 245.159 343.987 244.898C345.085 243.802 346.81 243.802 347.908 244.898C348.901 245.89 348.953 247.457 348.169 248.554C346.496 247.666 344.876 246.935 343.36 245.995L343.307 245.943ZM217.742 253.044L210.528 248.449L211.574 246.83L218.788 251.426L217.742 253.044ZM294.221 249.285C294.691 249.494 295.162 249.755 295.528 250.172C297.044 251.687 297.044 254.193 295.528 255.76C294.796 256.491 293.855 256.909 292.862 256.909C292.6 254.193 293.228 251.739 294.169 249.337L294.221 249.285ZM271.481 257.17C272.997 255.603 272.997 253.097 271.481 251.582C269.965 250.016 267.404 250.016 265.835 251.582C264.319 253.097 264.319 255.603 265.835 257.17C267.404 258.684 269.913 258.684 271.481 257.17ZM263.588 259.467C260.765 256.647 260.765 252.104 263.588 249.285C266.411 246.517 270.958 246.517 273.781 249.285C276.552 252.104 276.552 256.647 273.781 259.467C270.958 262.287 266.463 262.287 263.588 259.467ZM277.022 262.496C277.022 262.496 276.656 262.183 276.552 261.921L277.911 261.399C278.695 260.459 279.479 259.676 280.107 258.841C280.211 258.893 280.316 258.997 280.368 259.049C281.309 259.989 281.309 261.504 280.368 262.444C279.427 263.384 277.911 263.384 277.022 262.444V262.496ZM300.546 268.292C299.762 267.509 299.762 266.203 300.546 265.42C301.383 264.637 302.637 264.637 303.474 265.42C304.258 266.203 304.258 267.509 303.474 268.292C302.637 269.075 301.383 269.075 300.546 268.292ZM304.624 269.493C306.087 268.031 306.087 265.681 304.624 264.219C303.16 262.757 300.808 262.757 299.344 264.219C297.932 265.681 297.932 268.031 299.344 269.493C300.808 270.955 303.212 270.955 304.624 269.493ZM293.594 266.83C292.653 266.621 291.607 266.882 290.875 267.665C289.725 268.867 289.725 270.746 290.875 271.947C291.241 272.313 291.659 272.574 292.078 272.678C292.653 270.746 293.175 268.762 293.594 266.83ZM274.252 275.394C273.677 274.976 273.206 274.454 272.84 273.984C273.834 273.984 274.827 274.402 275.506 275.133C276.029 275.655 276.343 276.229 276.552 276.908C275.872 276.543 275.088 276.02 274.252 275.394ZM294.43 281.138C293.855 280.616 293.855 279.676 294.43 279.101C295.005 278.579 295.894 278.579 296.469 279.101C297.044 279.676 297.044 280.563 296.469 281.138C295.894 281.712 295.005 281.712 294.43 281.138ZM297.305 281.973C298.351 280.929 298.351 279.31 297.305 278.266C296.312 277.274 294.639 277.274 293.594 278.266C292.6 279.31 292.6 280.929 293.594 281.973C294.639 282.965 296.26 282.965 297.305 281.973ZM261.497 293.67C262.908 292.26 262.908 290.015 261.497 288.605C260.085 287.195 257.837 287.195 256.426 288.605C255.014 290.015 255.014 292.26 256.426 293.67C257.837 295.08 260.085 295.08 261.497 293.67ZM254.335 295.707C251.773 293.2 251.773 289.023 254.335 286.516C256.896 284.01 261.026 284.01 263.535 286.516C266.097 289.075 266.097 293.252 263.535 295.707C261.026 298.265 256.844 298.265 254.335 295.707ZM298.142 297.848L301.749 292.156L300.442 291.32L296.835 297.012L298.194 297.848H298.142ZM239.541 298.631L232.536 286.516L235.307 284.898L242.312 297.012L239.541 298.631ZM322.24 305.21C323.025 304.427 323.025 303.122 322.24 302.338C321.456 301.555 320.149 301.555 319.365 302.338C318.529 303.174 318.529 304.427 319.365 305.21C320.149 306.046 321.404 306.046 322.24 305.21ZM318.163 306.412C316.699 305.002 316.699 302.6 318.058 301.294C321.247 300.406 322.24 300.772 323.025 301.555C323.809 302.338 324.175 303.331 323.286 306.464C321.927 307.874 319.574 307.874 318.163 306.412ZM285.7 306.986C285.386 306.725 285.23 306.359 285.177 305.994C286.014 305.472 286.641 305.002 286.85 304.532C286.902 304.375 287.164 304.062 287.425 303.748C287.791 303.801 288.105 304.009 288.418 304.271C289.15 305.002 289.15 306.203 288.418 306.986C287.687 307.717 286.484 307.717 285.752 306.986H285.7ZM289.464 308.082C290.823 306.725 290.823 304.532 289.464 303.226C289.15 302.913 288.784 302.652 288.418 302.495C288.471 302.391 288.523 302.338 288.575 302.234C288.366 301.712 288.052 301.19 287.634 300.772C286.118 299.258 283.557 299.258 282.041 300.772C280.473 302.286 280.473 304.793 282.041 306.359C282.407 306.725 282.825 307.038 283.295 307.195C283.452 307.09 283.609 306.986 283.818 306.881C283.975 307.351 284.289 307.717 284.602 308.135C285.961 309.44 288.157 309.44 289.464 308.135V308.082ZM231.177 315.811C233.111 313.827 233.111 310.641 231.177 308.657C229.138 306.673 225.949 306.673 224.015 308.657C222.029 310.641 222.029 313.827 224.015 315.811C226.002 317.795 229.191 317.795 231.177 315.811ZM321.404 319.466L312.151 317.064L312.674 314.923L321.927 317.325L321.352 319.466H321.404ZM282.929 319.832L284.184 318.631L279.009 313.252L277.754 314.453L282.929 319.832ZM323.809 319.936L323.547 319.205L324.331 318.944L323.756 319.936H323.809ZM221.036 318.683C217.481 315.132 217.481 309.284 221.036 305.68C224.695 302.13 230.497 302.13 234.104 305.68C237.711 309.284 237.711 315.132 234.104 318.683C230.497 322.286 224.695 322.286 221.036 318.683ZM332.539 325.106C331.702 323.852 332.12 322.181 333.375 321.398C334.682 320.563 336.355 320.98 337.139 322.286C337.923 323.539 337.505 325.21 336.25 325.993C334.996 326.777 333.323 326.411 332.539 325.158V325.106ZM337.453 327.873C339.753 326.463 340.485 323.435 339.021 321.085C337.609 318.735 334.525 318.056 332.225 319.466C329.873 320.876 329.193 323.957 330.657 326.307C332.12 328.604 335.152 329.335 337.453 327.873ZM268.815 329.126C268.815 329.126 268.554 328.813 268.502 328.656C268.867 327.769 269.233 326.829 269.652 325.941C270.279 325.732 271.011 325.941 271.533 326.411C272.265 327.142 272.265 328.395 271.533 329.126C270.802 329.858 269.599 329.858 268.867 329.126H268.815ZM339.439 337.116L343.046 331.476L341.739 330.641L338.184 336.333L339.491 337.116H339.439ZM331.127 336.646C330.657 335.34 330.186 333.983 329.768 332.521C329.036 332.416 328.304 332.677 327.729 333.2C326.788 334.139 326.788 335.654 327.729 336.594C328.67 337.481 330.134 337.534 331.127 336.594V336.646ZM264.006 342.599C263.379 341.972 263.117 341.189 263.326 341.084L264.738 337.899C267.038 337.273 267.822 337.586 268.449 338.212C269.652 339.413 269.652 341.398 268.449 342.651C267.247 343.852 265.208 343.852 264.006 342.651V342.599ZM259.824 347.246C260.503 346.202 261.183 345.158 261.81 344.009C260.294 343.278 258.465 343.539 257.262 344.74C256.008 345.993 255.799 347.925 256.583 349.439C258.046 348.761 259.197 348.082 259.824 347.246ZM250.519 353.721C250.257 353.46 250.101 353.095 250.101 352.729C250.78 352.259 251.512 351.841 252.192 351.476C252.296 351.528 252.453 351.633 252.505 351.685C253.08 352.259 253.08 353.147 252.505 353.721C251.983 354.296 251.094 354.296 250.467 353.721H250.519ZM342.889 360.196C342.628 359.413 342.314 358.734 342.053 358.055C341.635 358.264 341.321 358.473 341.007 358.786C339.439 360.353 339.439 362.807 341.007 364.374C341.791 365.157 342.785 365.523 343.778 365.523C343.726 363.538 343.516 361.711 342.941 360.196H342.889ZM258.935 365.784C257.367 364.217 257.367 361.711 258.935 360.196C259.51 359.674 260.137 359.309 260.869 359.152C260.451 361.032 261.288 363.904 262.542 366.88C261.288 367.141 259.876 366.776 258.935 365.836V365.784ZM328.827 367.872L320.515 363.695L321.456 361.763L329.768 365.993L328.827 367.872ZM258.308 377.167C258.308 377.167 258.465 376.906 258.621 376.854C259.406 376.019 260.713 376.019 261.497 376.854C262.333 377.637 262.333 378.943 261.497 379.726C261.444 379.778 261.34 379.883 261.235 379.935C260.347 379.152 259.353 378.212 258.308 377.167ZM345.451 380.666C344.405 379.308 343.987 377.324 343.83 375.026L347.123 376.697L348.587 373.721L343.673 371.319C343.673 370.431 343.673 369.596 343.673 368.76C341.844 368.76 340.014 368.029 338.603 366.619C335.78 363.852 335.78 359.309 338.603 356.489C339.178 355.914 339.857 355.445 340.537 355.079C339.648 353.304 338.707 351.58 337.714 349.857L340.014 351.685L342.105 349.074L333.532 342.285C332.905 341.084 332.33 339.831 331.807 338.578C330.082 339.727 327.782 339.518 326.266 338.004C324.541 336.333 324.541 333.565 326.266 331.842C327.05 331.006 328.148 330.589 329.193 330.589C329.036 329.701 328.879 328.813 328.723 327.925C328.461 325.993 328.618 323.696 328.827 321.45L324.697 322.913L324.018 320.928L326.213 322.181L328.932 317.377H329.141C329.141 317.377 329.141 317.012 329.141 316.855L333.271 309.597L330.343 307.926L328.67 310.902C328.252 309.962 327.468 308.761 326.475 307.404C327.677 304.741 327.207 301.503 325.063 299.31C323.338 297.639 320.986 296.96 318.79 297.273C318.268 296.542 317.797 295.811 317.327 295.08H318.163V280.616H314.87V285.942C314.661 284.741 314.295 283.54 313.563 282.287C310.583 285.315 312.047 297.221 303.474 304.218C301.435 305.889 301.592 311.686 300.599 313.931C299.553 316.281 292.81 321.764 290.98 324.897C288.262 329.492 284.393 335.81 279.427 339.518C275.036 342.808 268.658 351.11 263.274 356.123C260.869 355.549 258.256 356.123 256.426 358.055C253.655 360.823 253.655 365.418 256.426 368.186C258.412 370.17 261.288 370.744 263.744 369.909C265.731 373.773 268.031 377.272 268.972 378.629C269.129 378.891 273.938 379.413 274.722 379.674V381.815C271.115 382.285 266.097 383.642 262.856 381.449C262.699 381.345 262.542 381.24 262.385 381.084C262.385 381.031 262.438 381.031 262.49 380.979C263.954 379.517 263.954 377.167 262.49 375.705C261.026 374.243 258.621 374.243 257.158 375.705C257.106 375.81 257.001 375.862 256.949 375.966C254.596 373.408 252.139 370.275 250.257 367.141L249.892 367.455L247.121 363.068L253.394 360.301L252.453 358.108L245.866 361.032L240.534 352.677L243.932 350.536L247.435 356.019C247.591 355.497 247.853 354.975 248.166 354.557C248.376 354.243 248.637 353.93 248.951 353.669C249.055 354.087 249.264 354.4 249.578 354.713C250.571 355.706 252.244 355.706 253.237 354.713C254.23 353.669 254.23 352.05 253.237 351.058L253.446 350.954C252.087 348.291 252.558 344.896 254.805 342.651C256.321 341.137 258.36 340.458 260.347 340.562C260.347 342.077 260.869 343.539 262.019 344.635C264.215 346.828 267.874 346.828 270.07 344.635C272.318 342.39 272.318 338.787 270.07 336.541C268.972 335.445 267.456 334.87 265.888 334.923L266.201 334.139L257.837 328.604L259.719 325.837L267.456 331.006C267.456 331.006 267.613 330.693 267.665 330.536C268.972 331.79 271.115 331.737 272.422 330.432C273.781 329.074 273.781 326.933 272.422 325.576C271.795 324.949 271.011 324.636 270.174 324.583C270.749 323.278 271.429 321.92 272.108 320.563L268.083 323.174L265.679 319.518L277.284 311.999C277.702 311.372 278.172 310.798 278.695 310.171C278.852 309.91 279.322 309.597 279.898 309.179C279.741 309.075 279.636 308.97 279.532 308.866C276.709 306.046 276.709 301.503 279.532 298.683C281.936 296.281 285.648 295.916 288.366 297.639C288.314 296.908 288.209 296.072 288.157 295.289L289.516 298.213L291.869 297.117L287.164 286.934L286.902 287.038L283.243 280.25L286.171 278.684L288.732 283.435C289.464 280.825 290.3 278.057 291.137 275.342C290.3 275.133 289.516 274.663 288.889 273.984C286.746 271.843 286.746 268.344 288.889 266.203C290.248 264.898 292.13 264.376 293.855 264.689C293.96 263.906 294.116 263.175 294.221 262.339C293.855 261.66 293.541 260.982 293.385 260.303C294.953 260.146 296.469 259.467 297.619 258.266C300.442 255.446 300.442 250.903 297.619 248.084C296.939 247.457 296.155 246.935 295.319 246.569C295.789 245.577 296.312 244.533 296.782 243.436C295.789 242.287 295.162 240.878 294.953 239.415C294.848 239.885 294.744 240.355 294.639 240.773C294.116 242.601 293.071 244.324 291.816 246.099C290.196 246.256 288.68 246.935 287.477 248.136C285.386 250.277 284.864 253.305 285.909 255.916C285.596 256.856 285.386 257.796 285.282 258.788C284.759 264.01 286.014 278.109 279.793 278.214C279.793 276.334 279.113 274.558 277.702 273.148C276.186 271.582 274.043 270.851 272.004 271.06C272.161 269.754 272.788 268.292 273.677 266.934L269.233 268.71L267.979 265.681L274.618 263.018C274.827 263.436 275.088 263.854 275.454 264.219C277.179 265.89 279.95 265.89 281.675 264.219C283.4 262.496 283.4 259.728 281.675 258.057C281.518 257.901 281.361 257.744 281.204 257.64C281.414 257.274 281.623 256.961 281.727 256.647C281.832 256.23 280.838 251.269 280.995 249.441C281.204 247.509 281.413 245.525 281.675 243.488L278.852 248.971L275.872 247.457L279.584 240.199L287.687 241.556L288.105 239.154L280.734 237.901L282.459 234.559L282.668 234.664C282.825 233.201 282.929 231.739 283.034 230.382C282.25 230.121 281.466 229.703 280.838 229.024C279.166 227.353 278.8 224.846 279.741 222.81C276.395 223.123 272.997 221.974 270.488 219.416C265.94 214.821 265.94 207.458 270.488 202.915C274.147 199.26 279.636 198.528 283.975 200.722C283.818 198.737 284.498 196.649 286.066 195.082C286.85 194.351 287.739 193.777 288.732 193.411C288.837 193.62 289.046 193.829 289.203 193.985C290.928 195.709 293.698 195.709 295.371 193.985C297.096 192.314 297.096 189.495 295.371 187.771C293.907 186.309 291.607 186.1 289.882 187.249L285.23 180.67L287.948 178.738L291.764 184.116C291.921 183.751 292.025 183.437 292.182 183.124C292.234 183.228 292.339 183.333 292.444 183.437C293.437 184.43 295.057 184.43 296.103 183.437C297.148 182.445 297.148 180.774 296.103 179.73C295.476 179.103 294.639 178.894 293.855 178.999C291.45 176.179 291.555 171.949 294.221 169.286C296.103 167.406 298.769 166.78 301.121 167.354C301.383 166.675 301.592 166.049 301.801 165.318C302.428 163.072 302.585 161.923 302.533 159.521L297.148 165.318L294.691 163.072L301.539 155.605C301.226 154.822 300.86 153.934 300.442 153.046C301.644 153.099 302.846 152.681 303.735 151.793C305.46 150.07 305.46 147.302 303.735 145.631C302.01 143.96 299.292 143.96 297.567 145.631C296.992 146.153 296.626 146.832 296.417 147.511C295.162 147.093 294.012 146.362 293.019 145.37C289.464 141.767 289.464 135.971 293.019 132.368C295.998 129.444 300.494 128.921 303.944 130.854C304.885 130.436 305.931 130.018 307.081 129.652C312.935 127.773 328.932 133.673 330.082 136.128C330.239 136.493 328.357 143.96 328.252 145.788C328.148 149.13 331.755 147.355 331.545 153.725C326.475 154.038 330.082 159.417 327.938 161.245C326.057 162.863 319.156 161.715 316.438 162.341C315.497 162.602 315.026 164.325 315.026 165.526C314.974 173.411 324.959 181.558 327.259 193.568C328.409 199.573 329.298 203.437 330.866 209.338C332.12 214.194 331.284 221.139 330.082 227.98C337.609 231.739 353.658 235.917 355.644 237.379C361.395 241.817 360.401 248.136 352.299 250.433C352.246 250.433 350.887 250.433 350.835 250.433C350.521 250.172 350.155 249.963 349.79 249.755C351.149 247.77 350.94 245.107 349.162 243.384C347.176 241.4 343.987 241.4 342.053 243.384C341.635 243.75 341.321 244.219 341.112 244.742C340.38 244.167 339.7 243.541 339.073 242.757C338.864 242.496 338.603 242.235 338.289 242.026L330.448 242.496L330.343 240.512L334.055 240.303C332.068 239.729 329.925 239.259 328.252 238.684C328.095 239.99 327.938 241.243 327.886 242.34C323.181 253.253 337.087 282.495 340.798 293.357C344.353 303.801 349.633 326.881 350.521 337.899C351.619 352.155 350.835 368.238 363.852 374.191C366.622 375.444 373.627 374.661 376.45 377.428C376.816 378.995 375.77 380.248 375.352 381.763C373.732 383.851 346.444 382.441 345.189 380.666H345.451Z" fill="#2AA9E0"/>
</g>
</svg>
