<?xml version="1.0" encoding="UTF-8" standalone="no"?>
<svg
   width="32"
   height="32"
   viewBox="0 0 32 32"
   fill="none"
   version="1.1"
   id="svg15"
   sodipodi:docname="location_white.svg"
   inkscape:version="1.1.2 (0a00cf5339, 2022-02-04)"
   inkscape:export-filename="/home/neochapay/work/ubuntu/hideme_ubports/app/graphics/location_white.png"
   inkscape:export-xdpi="384"
   inkscape:export-ydpi="384"
   xmlns:inkscape="http://www.inkscape.org/namespaces/inkscape"
   xmlns:sodipodi="http://sodipodi.sourceforge.net/DTD/sodipodi-0.dtd"
   xmlns="http://www.w3.org/2000/svg"
   xmlns:svg="http://www.w3.org/2000/svg">
  <sodipodi:namedview
     id="namedview17"
     pagecolor="#ffffff"
     bordercolor="#999999"
     borderopacity="1"
     inkscape:pageshadow="0"
     inkscape:pageopacity="0"
     inkscape:pagecheckerboard="true"
     showgrid="false"
     inkscape:zoom="5.8831776"
     inkscape:cx="80.143765"
     inkscape:cy="16.062748"
     inkscape:window-width="1920"
     inkscape:window-height="1008"
     inkscape:window-x="0"
     inkscape:window-y="412"
     inkscape:window-maximized="1"
     inkscape:current-layer="svg15" />
  <g
     clip-path="url(#clip0_18_768)"
     id="g6">
    <path
       d="m 16,18 c -0.9889,0 -1.9556,-0.2932 -2.7778,-0.8426 -0.8223,-0.5495 -1.4632,-1.3303 -1.8416,-2.244 -0.3784,-0.9136 -0.4775,-1.9189 -0.2845,-2.8888 0.1929,-0.97 0.6691,-1.8609 1.3684,-2.56013 0.6992,-0.69926 1.5901,-1.17547 2.5601,-1.36839 0.9699,-0.19293 1.9752,-0.09391 2.8888,0.28452 0.9137,0.37844 1.6945,1.01931 2.244,1.8416 C 20.7068,11.0444 21,12.0111 21,13 20.9985,14.3256 20.4712,15.5965 19.5339,16.5339 18.5965,17.4712 17.3256,17.9985 16,18 Z m 0,-8 c -0.5933,0 -1.1734,0.1759 -1.6667,0.5056 -0.4934,0.3296 -0.8779,0.7982 -1.1049,1.3464 -0.2271,0.5481 -0.2865,1.1513 -0.1708,1.7333 0.1158,0.5819 0.4015,1.1165 0.8211,1.536 0.4195,0.4196 0.9541,0.7053 1.536,0.8211 0.582,0.1157 1.1852,0.0563 1.7334,-0.1708 0.5481,-0.227 1.0167,-0.6115 1.3463,-1.1049 C 18.8241,14.1734 19,13.5933 19,13 18.9991,12.2046 18.6828,11.4421 18.1204,10.8796 17.5579,10.3172 16.7954,10.0009 16,10 Z"
       fill="#ffffff"
       id="path2" />
    <path
       d="M 16,30 7.56451,20.0513 C 7.51661,19.9942 7.21631,19.5998 7.21631,19.5998 5.77521,17.7017 4.99663,15.3832 5.00001,13 5.00001,10.0826 6.15894,7.28473 8.22184,5.22183 10.2847,3.15893 13.0826,2 16,2 18.9174,2 21.7153,3.15893 23.7782,5.22183 25.8411,7.28473 27,10.0826 27,13 c 0.0036,2.3822 -0.7745,4.6998 -2.2148,6.5973 l -0.0015,0.0025 c 0,0 -0.3,0.3944 -0.3447,0.4474 z M 8.81251,18.395 c 0.001,7e-4 0.2334,0.3082 0.2866,0.3744 L 16,26.9079 l 6.91,-8.15 C 22.9539,18.7027 23.1883,18.393 23.1888,18.3922 24.3661,16.8413 25.0023,14.9471 25,13 25,10.6131 24.0518,8.32387 22.364,6.63604 20.6761,4.94821 18.387,4 16,4 13.6131,4 11.3239,4.94821 9.63605,6.63604 7.94822,8.32387 7.00001,10.6131 7.00001,13 c -0.00221,1.9482 0.63448,3.8433 1.8125,5.395 z"
       fill="#ffffff"
       id="path4" />
  </g>
  <defs
     id="defs13">
    <clipPath
       id="clip0_18_768">
      <rect
         width="32"
         height="32"
         fill="#ffffff"
         id="rect10"
         x="0"
         y="0" />
    </clipPath>
  </defs>
</svg>
