<svg width="196" height="224" viewBox="0 0 196 224" fill="none" xmlns="http://www.w3.org/2000/svg">
<path fill-rule="evenodd" clip-rule="evenodd" d="M97.6233 224C95.0166 224 92.5135 223.719 90.5828 223.208C88.6461 222.697 42.8826 210.096 19.1452 160.987C-4.23284 112.616 0.274071 56.4963 0.4781 54.1276C0.91052 49.0755 4.6074 43.6119 9.07473 41.4146L90.1565 1.57081C92.2242 0.557889 94.8735 0 97.6233 0C100.373 0 103.023 0.557889 105.087 1.57081L186.172 41.4146C190.636 43.6119 194.333 49.0755 194.769 54.1276C194.97 56.4963 199.48 112.616 176.098 160.987C152.361 210.096 106.601 222.697 104.661 223.208C102.73 223.719 100.23 224 97.6233 224Z" fill="#1A709A"/>
<path fill-rule="evenodd" clip-rule="evenodd" d="M97.6227 214.588C95.2165 214.588 92.9059 214.331 91.1237 213.863C89.3359 213.395 47.0928 201.853 25.1813 156.87C3.60155 112.564 7.76178 61.1606 7.95011 58.991C8.34927 54.3634 11.7618 49.3589 15.8855 47.3463L90.7302 10.8507C92.6388 9.92287 95.0844 9.41187 97.6227 9.41187C100.161 9.41187 102.606 9.92287 104.512 10.8507L179.36 47.3463C183.481 49.3589 186.893 54.3634 187.295 58.991C187.481 61.1606 191.644 112.564 170.061 156.87C148.15 201.853 105.909 213.395 104.119 213.863C102.337 214.331 100.029 214.588 97.6227 214.588Z" fill="#155D81"/>
<path fill-rule="evenodd" clip-rule="evenodd" d="M97.6233 205.333C95.4176 205.333 93.2996 205.1 91.6659 204.674C90.0271 204.248 51.3042 193.747 31.2187 152.822C11.4373 112.513 15.2508 65.747 15.4235 63.7731C15.7894 59.563 18.9175 55.01 22.6975 53.1789L91.3052 19.9758C93.0548 19.1317 95.2965 18.6667 97.6233 18.6667C99.9501 18.6667 102.192 19.1317 103.939 19.9758L172.549 53.1789C176.327 55.01 179.455 59.563 179.823 63.7731C179.993 65.747 183.809 112.513 164.025 152.822C143.94 193.747 105.219 204.248 103.578 204.674C101.944 205.1 99.829 205.333 97.6233 205.333Z" fill="#135677"/>
<path fill-rule="evenodd" clip-rule="evenodd" d="M97.623 195.896C95.6178 195.896 93.6923 195.685 92.2072 195.302C90.7174 194.918 55.5147 185.468 37.2552 148.635C19.272 112.357 22.7389 70.2678 22.8958 68.4912C23.2285 64.7021 26.0722 60.6044 29.5086 58.9565L91.8792 29.0736C93.4698 28.3139 95.5077 27.8955 97.623 27.8955C99.7382 27.8955 101.776 28.3139 103.364 29.0736L165.737 58.9565C169.171 60.6044 172.015 64.7021 172.35 68.4912C172.505 70.2678 175.974 112.357 157.988 148.635C139.729 185.468 104.529 194.918 103.036 195.302C101.551 195.685 99.6281 195.896 97.623 195.896Z" fill="#155D81"/>
<path fill-rule="evenodd" clip-rule="evenodd" d="M155.193 79.4317C154.863 75.6529 152.176 71.7188 148.799 70.0741L102.394 47.5023C100.433 46.5494 98.3709 46.3494 96.9866 46.3494C95.6024 46.3494 93.5399 46.5494 91.5796 47.5023L45.1742 70.0741C41.7971 71.7188 39.1099 75.6529 38.7801 79.4317C38.6616 80.8035 36.0231 113.314 49.7265 141.38C63.8386 170.274 91.1476 177.716 92.302 178.018C93.9859 178.458 95.7789 178.549 96.9866 178.549C98.1944 178.549 99.9874 178.458 101.669 178.018C102.826 177.716 130.135 170.274 144.245 141.38C157.95 113.314 155.312 80.8035 155.193 79.4317Z" fill="#146A91"/>
<path fill-rule="evenodd" clip-rule="evenodd" d="M87.1685 112.45C87.1685 115.302 84.8852 117.615 82.07 117.615C79.2547 117.615 76.9714 115.302 76.9714 112.45C76.9714 109.598 79.2547 107.284 82.07 107.284C84.8852 107.284 87.1685 109.598 87.1685 112.45Z" fill="white"/>
<path fill-rule="evenodd" clip-rule="evenodd" d="M102.718 112.45C102.718 115.302 100.435 117.615 97.6196 117.615C94.8044 117.615 92.5211 115.302 92.5211 112.45C92.5211 109.598 94.8044 107.284 97.6196 107.284C100.435 107.284 102.718 109.598 102.718 112.45Z" fill="white"/>
<path fill-rule="evenodd" clip-rule="evenodd" d="M119.06 112.45C119.06 115.302 116.779 117.615 113.964 117.615C111.148 117.615 108.863 115.302 108.863 112.45C108.863 109.598 111.148 107.284 113.964 107.284C116.779 107.284 119.06 109.598 119.06 112.45Z" fill="white"/>
</svg>
