<svg width="150" height="167" viewBox="0 0 150 167" fill="none" xmlns="http://www.w3.org/2000/svg">
<path fill-rule="evenodd" clip-rule="evenodd" d="M75 167C72.9974 167 71.0743 166.791 69.591 166.41C68.1031 166.029 32.945 156.635 14.7085 120.021C-3.25192 83.959 0.210558 42.1201 0.367305 40.3541C0.699515 36.5876 3.53968 32.5143 6.97174 30.8761L69.2635 1.1711C70.8521 0.415926 72.8874 0 75 0C77.1126 0 79.1479 0.415926 80.7341 1.1711L143.028 30.8761C146.46 32.5143 149.3 36.5876 149.633 40.3541C149.789 42.1201 153.252 83.959 135.292 120.021C117.055 156.635 81.8969 166.029 80.4089 166.41C78.9257 166.791 77.0026 167 75 167Z" fill="#155D81"/>
<path fill-rule="evenodd" clip-rule="evenodd" d="M132.715 50.8517C132.385 47.1323 129.698 43.2577 126.323 41.6411L79.913 19.4241C77.9526 18.4862 75.8924 18.2893 74.5058 18.2893C73.1215 18.2893 71.0589 18.4862 69.1009 19.4241L22.6912 41.6411C19.314 43.2577 16.6267 47.1323 16.2969 50.8517C16.1784 52.2019 13.5398 84.2015 27.246 111.824C41.3564 140.264 68.6665 147.589 69.8232 147.888C71.5049 148.321 73.298 148.412 74.5058 148.412C75.7136 148.412 77.5067 148.321 79.1906 147.888C80.345 147.589 107.655 140.264 121.768 111.824C135.472 84.2015 132.833 52.2019 132.715 50.8517Z" fill="#146A91"/>
<path fill-rule="evenodd" clip-rule="evenodd" d="M48.7712 85.6735H102.58V78.7026H48.7712V85.6735Z" fill="#155D81"/>
</svg>
