<svg width="150" height="168" viewBox="0 0 150 168" fill="none" xmlns="http://www.w3.org/2000/svg">
<path fill-rule="evenodd" clip-rule="evenodd" d="M75.0005 167.99C72.9979 167.99 71.0748 167.781 69.5916 167.4C68.1036 167.018 32.9452 157.624 14.7086 121.011C-3.25194 84.9485 0.210559 43.1096 0.367307 41.3437C0.69952 37.5771 3.53971 33.5038 6.97179 31.8656L69.264 2.1606C70.8526 1.40543 72.888 0.989502 75.0005 0.989502C77.1131 0.989502 79.1485 1.40543 80.7347 2.1606L143.029 31.8656C146.459 33.5038 149.299 37.5771 149.634 41.3437C149.788 43.1096 153.253 84.9485 135.29 121.011C117.054 157.624 81.8975 167.018 80.4072 167.4C78.9239 167.781 77.0032 167.99 75.0005 167.99Z" fill="#155D81"/>
<path fill-rule="evenodd" clip-rule="evenodd" d="M133.631 51.8948C133.299 48.1631 130.592 44.2757 127.19 42.6538L80.4465 20.3634C78.472 19.4224 76.3945 19.2249 75.0001 19.2249C73.6058 19.2249 71.5283 19.4224 69.5537 20.3634L22.81 42.6538C19.4083 44.2757 16.7015 48.1631 16.3693 51.8948C16.2499 53.2495 13.5922 85.3548 27.3954 113.069C41.6104 141.602 69.1186 148.952 70.2813 149.252C71.9775 149.686 73.7836 149.777 75.0001 149.777C76.2167 149.777 78.0228 149.686 79.7166 149.252C80.8817 148.952 108.39 141.602 122.602 113.069C136.408 85.3548 133.75 53.2495 133.631 51.8948Z" fill="#146A91"/>
<path fill-rule="evenodd" clip-rule="evenodd" d="M46.0389 85.8677L49.0568 89.0626C49.9131 89.9665 51.2888 90.0827 52.3275 89.3926C58.946 85.0056 66.8653 82.4194 75.4022 82.4194C83.7099 82.4194 91.435 84.8662 97.9459 89.0417C98.9987 89.7156 100.377 89.5785 101.219 88.656L104.181 85.4123C105.229 84.2644 104.969 82.4752 103.671 81.6155C95.569 76.2526 85.8459 73.125 75.4022 73.125C64.6755 73.125 54.7185 76.4292 46.4904 82.057C45.2013 82.9399 44.9674 84.7338 46.0389 85.8677Z" fill="#155D81"/>
<path fill-rule="evenodd" clip-rule="evenodd" d="M33.1736 72.2535L36.1214 75.3741C37.0595 76.3663 38.5989 76.4104 39.6353 75.5228C49.2578 67.3158 61.7509 62.3386 75.402 62.3386C88.7092 62.3386 100.929 67.0602 110.448 74.9047C111.501 75.7738 113.043 75.7041 113.962 74.6956L116.858 71.5239C117.808 70.4829 117.731 68.8448 116.646 67.9409C105.47 58.6487 91.0815 53.0442 75.402 53.0442C59.3225 53.0442 44.6115 58.9438 33.3233 68.6658C32.2518 69.5883 32.2027 71.2288 33.1736 72.2535Z" fill="#155D81"/>
<path fill-rule="evenodd" clip-rule="evenodd" d="M71.0338 112.324L73.8459 115.298C74.6835 116.186 76.1036 116.172 76.9247 115.272L79.6596 112.275C80.806 111.02 80.0433 109.022 78.3518 108.799C77.3856 108.673 76.4007 108.606 75.4017 108.606C74.3513 108.606 73.3195 108.68 72.3065 108.822C70.608 109.059 69.8594 111.078 71.0338 112.324Z" fill="#155D81"/>
<path fill-rule="evenodd" clip-rule="evenodd" d="M58.2782 98.8234L61.3851 102.111C62.1361 102.906 63.3129 103.078 64.3095 102.613C67.6808 101.042 71.4381 100.159 75.4012 100.159C79.2661 100.159 82.9345 100.994 86.2402 102.488C87.2158 102.929 88.3599 102.746 89.0804 101.958L92.1499 98.5933C93.2565 97.3804 92.9102 95.4402 91.441 94.6966C86.6169 92.2568 81.1752 90.865 75.4012 90.865C69.4588 90.865 63.8603 92.3335 58.9333 94.9058C57.4687 95.6702 57.1459 97.6244 58.2782 98.8234Z" fill="#155D81"/>
<path fill-rule="evenodd" clip-rule="evenodd" d="M75.9196 92.4106H74.0807C72.291 92.4106 70.8265 91.3046 70.8265 89.9546L69.1958 59.3689C69.1958 58.0166 70.6603 56.9128 72.4524 56.9128H77.5503C79.34 56.9128 80.8045 58.0166 80.8045 59.3689L79.1762 89.9546C79.1762 91.3046 77.7117 92.4106 75.9196 92.4106Z" fill="#12658B" fill-opacity="0.85"/>
<path fill-rule="evenodd" clip-rule="evenodd" d="M75.9196 92.4106H74.0807C72.291 92.4106 70.8265 91.3046 70.8265 89.9546L69.1958 59.3689C69.1958 58.0166 70.6603 56.9128 72.4524 56.9128H77.5503C79.34 56.9128 80.8045 58.0166 80.8045 59.3689L79.1762 89.9546C79.1762 91.3046 77.7117 92.4106 75.9196 92.4106Z" stroke="#12658B" stroke-opacity="0.85" stroke-width="5"/>
<path fill-rule="evenodd" clip-rule="evenodd" d="M76.3638 104.737H73.6359C71.8673 104.737 70.4167 103.299 70.4167 101.54V98.8302C70.4167 97.0736 71.8673 95.6353 73.6359 95.6353H76.3638C78.1348 95.6353 79.583 97.0736 79.583 98.8302V101.54C79.583 103.299 78.1348 104.737 76.3638 104.737Z" fill="#12658B" fill-opacity="0.85"/>
<path fill-rule="evenodd" clip-rule="evenodd" d="M76.3638 104.737H73.6359C71.8673 104.737 70.4167 103.299 70.4167 101.54V98.8302C70.4167 97.0736 71.8673 95.6353 73.6359 95.6353H76.3638C78.1348 95.6353 79.583 97.0736 79.583 98.8302V101.54C79.583 103.299 78.1348 104.737 76.3638 104.737Z" stroke="#12658B" stroke-opacity="0.85" stroke-width="5"/>
<path fill-rule="evenodd" clip-rule="evenodd" d="M75.9196 92.4106H74.0807C72.291 92.4106 70.8265 91.3046 70.8265 89.9546L69.1958 59.3689C69.1958 58.0166 70.6603 56.9128 72.4524 56.9128H77.5503C79.34 56.9128 80.8045 58.0166 80.8045 59.3689L79.1762 89.9546C79.1762 91.3046 77.7117 92.4106 75.9196 92.4106Z" fill="#FEFEFE"/>
<path fill-rule="evenodd" clip-rule="evenodd" d="M76.3638 104.737H73.6359C71.8673 104.737 70.4167 103.299 70.4167 101.54V98.8302C70.4167 97.0736 71.8673 95.6353 73.6359 95.6353H76.3638C78.1348 95.6353 79.583 97.0736 79.583 98.8302V101.54C79.583 103.299 78.1348 104.737 76.3638 104.737Z" fill="#FEFEFE"/>
</svg>
