<svg width="150" height="167" viewBox="0 0 150 167" fill="none" xmlns="http://www.w3.org/2000/svg">
<mask id="mask0_17_1671" style="mask-type:luminance" maskUnits="userSpaceOnUse" x="0" y="0" width="150" height="167">
<path fill-rule="evenodd" clip-rule="evenodd" d="M0 0H150V167H0V0Z" fill="white"/>
</mask>
<g mask="url(#mask0_17_1671)">
<path fill-rule="evenodd" clip-rule="evenodd" d="M75 167C72.9974 167 71.0743 166.791 69.591 166.41C68.1031 166.029 32.945 156.635 14.7085 120.021C-3.25192 83.959 0.210558 42.1201 0.367305 40.3542C0.699515 36.5876 3.53968 32.5143 6.97174 30.8761L69.2635 1.1711C70.8521 0.415926 72.8874 0 75 0C77.1126 0 79.1479 0.415926 80.7341 1.1711L143.028 30.8761C146.46 32.5143 149.3 36.5876 149.633 40.3542C149.789 42.1201 153.252 83.959 135.292 120.021C117.055 156.635 81.8969 166.029 80.4089 166.41C78.9257 166.791 77.0026 167 75 167Z" fill="#B2CB26"/>
</g>
<path fill-rule="evenodd" clip-rule="evenodd" d="M133.629 50.8948C133.297 47.1631 130.59 43.2757 127.188 41.6538L80.445 19.3634C78.4728 18.4224 76.3929 18.2249 74.9986 18.2249C73.6043 18.2249 71.5268 18.4224 69.5522 19.3634L22.8088 41.6538C19.4095 43.2757 16.7004 47.1631 16.3682 50.8948C16.2488 52.2495 13.5912 84.3548 27.3966 112.069C41.6091 140.602 69.1171 147.952 70.2822 148.252C71.976 148.686 73.7821 148.777 74.9986 148.777C76.2151 148.777 78.0212 148.686 79.7174 148.252C80.8801 147.952 108.388 140.602 122.601 112.069C136.406 84.3548 133.748 52.2495 133.629 50.8948Z" fill="#C1D551"/>
<path d="M48.1943 83.5776L70.0383 100.895L102.398 61.5242" stroke="white" stroke-width="6" stroke-linecap="round" stroke-linejoin="round"/>
</svg>
